<?xml version="1.0" standalone="no"?><!DOCTYPE svg PUBLIC "-//W3C//DTD SVG 1.1//EN" "http://www.w3.org/Graphics/SVG/1.1/DTD/svg11.dtd"><svg height="1024" node-id="1" sillyvg="true" template-height="1024" template-width="1024" version="1.1" viewBox="0 0 1024 1024" width="1024" xmlns="http://www.w3.org/2000/svg" xmlns:xlink="http://www.w3.org/1999/xlink"><defs node-id="959"><linearGradient gradientUnits="objectBoundingBox" id="SVGID_1_" node-id="7" spreadMethod="pad" x1="178.9848" x2="178.9848" y1="530.18" y2="832.3582"><stop offset="0" stop-color="#9fc3ff"></stop><stop offset="1" stop-color="#f2f6fd"></stop></linearGradient><linearGradient gradientUnits="objectBoundingBox" id="SVGID_00000147213181417854125500000015949075749900332471_" node-id="11" spreadMethod="pad" x1="511.9999" x2="511.9999" y1="1024" y2="781.6501"><stop offset="0" stop-color="#69a2ff"></stop><stop offset="1" stop-color="#c3d9ff"></stop></linearGradient><linearGradient gradientUnits="objectBoundingBox" id="SVGID_00000065070129179562267590000002460034357077034117_" node-id="15" spreadMethod="pad" x1="870.0641" x2="766.8857" y1="198.9599" y2="106.5664"><stop offset="0" stop-color="#69a2ff"></stop><stop offset="1" stop-color="#c3d9ff"></stop></linearGradient><linearGradient gradientUnits="objectBoundingBox" id="SVGID_00000152943176441076225070000012543231264512112021_" node-id="19" spreadMethod="pad" x1="198.3015" x2="36.1721" y1="219.7219" y2="74.5395"><stop offset="0" stop-color="#69a2ff"></stop><stop offset="1" stop-color="#c3d9ff"></stop></linearGradient><linearGradient gradientUnits="objectBoundingBox" id="SVGID_00000116234343322038510730000016876057378879334573_" node-id="23" spreadMethod="pad" x1="959.2842" x2="876.7314" y1="262.3544" y2="188.4306"><stop offset="0" stop-color="#69a2ff"></stop><stop offset="1" stop-color="#c3d9ff"></stop></linearGradient><linearGradient gradientUnits="objectBoundingBox" id="SVGID_00000121265935480167936780000005887748149357281976_" node-id="28" spreadMethod="pad" x1="152.4992" x2="139.8959" y1="853.0433" y2="843.0314"><stop offset="0" stop-color="#69a2ff"></stop><stop offset="1" stop-color="#c3d9ff"></stop></linearGradient><linearGradient gradientUnits="objectBoundingBox" id="SVGID_00000145761512566959681840000006171319778369131695_" node-id="35" spreadMethod="pad" x1="897.1196" x2="878.5445" y1="865.0704" y2="850.3145"><stop offset="0" stop-color="#69a2ff"></stop><stop offset="1" stop-color="#c3d9ff"></stop></linearGradient><linearGradient gradientUnits="objectBoundingBox" id="SVGID_00000021830106945726947810000015987687208985215640_" node-id="42" spreadMethod="pad" x1="229.7763" x2="221.1478" y1="810.3451" y2="803.4907"><stop offset="0" stop-color="#69a2ff"></stop><stop offset="1" stop-color="#c3d9ff"></stop></linearGradient><linearGradient gradientUnits="objectBoundingBox" id="SVGID_00000019638997782921756820000016469724529228986524_" node-id="49" spreadMethod="pad" x1="570.648" x2="404.0099" y1="786.5879" y2="328.7533"><stop offset="0" stop-color="#5783f3"></stop><stop offset="1" stop-color="#86aeff"></stop></linearGradient></defs><g node-id="1082"><path d="M 0.00 0.00 L 1024.00 0.00 L 1024.00 1024.00 L 0.00 1024.00 Z" fill="#f2f6fd" fill-rule="nonzero" group-id="1" node-id="1019" stroke="none" target-height="1024" target-width="1024" target-x="0" target-y="0"></path><g node-id="1084"><path d="M 282.10 616.50 L 253.60 585.40 L 252.70 584.60 L 250.90 584.00 L 249.20 584.60 L 248.30 585.40 L 219.70 616.60 L 218.60 619.10 L 218.40 620.80 L 218.40 541.20 L 218.10 538.20 L 217.40 535.60 L 216.10 533.40 L 214.60 531.70 L 213.40 530.90 L 210.70 530.20 L 132.50 530.20 L 129.80 530.90 L 128.60 531.70 L 127.00 533.40 L 125.80 535.60 L 125.00 538.20 L 124.80 541.20 L 124.80 636.50 L 123.30 634.10 L 122.20 633.40 L 121.10 633.20 L 78.70 633.20 L 76.60 634.00 L 75.70 634.90 L 74.70 637.50 L 74.50 825.50 L 74.70 827.10 L 75.70 829.70 L 76.60 830.60 L 78.70 831.40 L 121.10 831.40 L 123.10 830.60 L 124.00 829.70 L 125.10 827.10 L 125.20 825.00 L 125.90 827.10 L 128.00 830.30 L 129.40 831.40 L 130.80 832.10 L 132.50 832.40 L 210.70 832.40 L 213.40 831.70 L 214.60 830.90 L 216.10 829.20 L 217.40 826.90 L 218.10 824.40 L 218.40 821.40 L 218.60 825.90 L 219.20 827.70 L 220.00 829.20 L 221.10 830.40 L 222.40 831.10 L 223.80 831.40 L 278.20 831.40 L 279.60 831.10 L 280.80 830.40 L 281.90 829.20 L 282.80 827.70 L 283.50 823.80 L 283.50 620.90 L 283.30 619.20 L 282.10 616.50 Z M 111.80 764.30 L 92.10 764.30 L 92.10 726.60 L 111.80 726.60 L 111.80 764.30 Z M 111.80 707.00 L 92.10 707.00 L 92.10 668.00 L 111.80 668.00 L 111.80 707.00 Z M 164.80 612.00 L 142.80 612.00 L 142.80 565.30 L 164.80 565.30 L 164.80 612.00 Z M 247.70 677.50 L 229.00 677.50 L 229.00 640.10 L 247.70 640.10 L 247.70 677.50 Z" fill="url(#SVGID_1_)" fill-opacity="0.3" fill-rule="nonzero" group-id="1,3" node-id="1023" stroke="none" target-height="302.2" target-width="209" target-x="74.5" target-y="530.2"></path></g><g node-id="1085"><path d="M 1023.80 939.60 L 1016.30 931.20 L 1008.30 922.80 L 999.60 914.50 L 990.20 906.20 L 980.00 898.00 L 969.90 890.30 L 959.10 882.80 L 947.70 875.30 L 935.60 868.00 L 922.90 860.70 L 910.20 854.00 L 883.20 841.00 L 853.80 828.60 L 835.10 821.50 L 815.70 814.80 L 795.40 808.40 L 774.30 802.30 L 753.30 796.80 L 731.50 791.70 L 709.10 787.00 L 685.90 782.60 L 662.90 778.90 L 639.30 775.50 L 615.00 772.70 L 590.20 770.30 L 565.50 768.40 L 540.40 767.10 L 514.80 766.30 L 488.70 766.00 L 462.80 766.30 L 437.50 767.10 L 412.60 768.40 L 388.10 770.20 L 363.50 772.50 L 339.50 775.40 L 316.10 778.60 L 293.20 782.30 L 270.20 786.60 L 248.00 791.20 L 226.40 796.20 L 205.50 801.60 L 184.50 807.60 L 164.40 813.90 L 145.00 820.50 L 126.40 827.40 L 107.80 835.00 L 90.20 842.80 L 73.40 850.80 L 57.50 859.00 L 44.80 866.10 L 32.70 873.40 L 21.30 880.70 L 10.50 888.10 L 0.30 895.70 L 0.30 1024.00 L 1023.70 1024.00 L 1023.70 939.60 Z" fill="url(#SVGID_00000147213181417854125500000015949075749900332471_)" fill-opacity="0.2" fill-rule="nonzero" group-id="1,4" node-id="1028" stroke="none" target-height="258" target-width="1023.5" target-x="0.3" target-y="766"></path></g><g node-id="1086"><path d="M 788.60 194.40 L 877.50 194.40 L 881.30 194.10 L 884.80 193.40 L 888.30 192.20 L 891.50 190.60 L 894.50 188.50 L 897.20 186.10 L 899.60 183.30 L 901.60 180.30 L 903.20 176.80 L 904.30 173.20 L 904.90 169.60 L 905.10 166.00 L 904.70 162.40 L 903.90 158.90 L 902.70 155.40 L 900.90 152.20 L 898.80 149.30 L 896.20 146.50 L 893.30 144.10 L 890.10 142.20 L 886.80 140.80 L 883.30 139.80 L 879.70 139.30 L 876.10 139.20 L 872.50 139.60 L 868.90 140.50 L 865.40 141.90 L 863.90 137.80 L 862.00 134.10 L 859.70 130.60 L 856.90 127.50 L 853.90 124.70 L 850.60 122.30 L 847.00 120.20 L 843.20 118.70 L 839.20 117.50 L 835.10 116.80 L 830.90 116.60 L 826.50 116.90 L 822.30 117.80 L 818.20 119.10 L 814.50 120.80 L 810.90 123.00 L 807.70 125.60 L 804.80 128.50 L 802.20 131.70 L 800.00 135.20 L 798.30 138.90 L 796.90 142.90 L 796.10 147.00 L 795.70 151.40 L 792.90 150.60 L 787.30 150.30 L 784.50 150.60 L 779.20 152.40 L 774.50 155.40 L 772.40 157.40 L 769.10 162.10 L 767.10 167.40 L 766.60 172.90 L 767.50 178.50 L 769.80 183.80 L 773.30 188.20 L 777.80 191.50 L 783.00 193.60 L 788.60 194.40 Z" fill="url(#SVGID_00000065070129179562267590000002460034357077034117_)" fill-opacity="0.1" fill-rule="nonzero" group-id="1,5" node-id="1033" stroke="none" target-height="77.799995" target-width="138.5" target-x="766.6" target-y="116.6"></path></g><g node-id="1087"><path d="M 70.40 212.50 L 210.00 212.50 L 214.40 212.30 L 218.70 211.60 L 222.90 210.60 L 226.90 209.10 L 230.80 207.20 L 234.40 205.00 L 237.80 202.40 L 241.00 199.50 L 243.80 196.30 L 246.30 192.80 L 248.50 189.10 L 250.40 185.00 L 251.80 180.70 L 252.70 176.50 L 253.20 172.20 L 253.30 167.90 L 253.00 163.60 L 252.20 159.40 L 251.10 155.40 L 249.50 151.40 L 247.60 147.50 L 245.20 143.90 L 242.50 140.50 L 239.40 137.30 L 235.90 134.40 L 232.30 132.00 L 228.60 130.00 L 224.60 128.30 L 220.50 127.10 L 216.30 126.20 L 212.10 125.80 L 207.80 125.80 L 203.50 126.30 L 199.30 127.10 L 195.10 128.40 L 191.00 130.10 L 189.30 125.30 L 187.20 120.70 L 184.70 116.40 L 181.90 112.40 L 178.80 108.60 L 175.40 105.10 L 171.70 102.00 L 167.70 99.20 L 163.50 96.80 L 159.10 94.70 L 154.60 93.00 L 149.80 91.70 L 145.00 90.80 L 140.10 90.40 L 135.10 90.40 L 129.90 90.80 L 124.80 91.80 L 120.00 93.10 L 115.30 94.80 L 110.90 97.00 L 106.70 99.50 L 102.70 102.30 L 99.10 105.50 L 95.70 109.00 L 92.60 112.70 L 89.90 116.70 L 87.50 120.90 L 85.50 125.40 L 83.80 130.00 L 82.60 134.80 L 81.80 139.80 L 81.40 145.00 L 77.00 143.80 L 72.60 143.20 L 68.20 143.20 L 63.80 143.80 L 59.60 144.90 L 55.50 146.50 L 51.60 148.70 L 48.10 151.30 L 44.80 154.50 L 41.90 158.00 L 39.60 161.80 L 37.80 165.90 L 36.60 170.10 L 35.90 174.40 L 35.70 178.80 L 36.10 183.20 L 37.10 187.50 L 38.70 191.80 L 40.80 195.90 L 43.30 199.50 L 46.30 202.80 L 49.60 205.70 L 53.30 208.00 L 57.30 210.00 L 61.40 211.40 L 65.80 212.20 L 70.40 212.50 Z" fill="url(#SVGID_00000152943176441076225070000012543231264512112021_)" fill-opacity="0.1" fill-rule="nonzero" group-id="1,6" node-id="1038" stroke="none" target-height="122.1" target-width="217.6" target-x="35.7" target-y="90.4"></path></g><g node-id="1088"><path d="M 894.10 258.70 L 965.20 258.70 L 968.20 258.50 L 973.90 256.90 L 978.80 254.00 L 982.90 249.90 L 984.50 247.40 L 985.80 244.70 L 986.70 241.80 L 987.20 238.90 L 987.00 233.10 L 985.40 227.50 L 984.00 225.00 L 980.20 220.40 L 975.30 217.00 L 972.70 215.80 L 967.00 214.60 L 961.20 214.90 L 955.60 216.70 L 952.80 210.40 L 951.00 207.70 L 946.30 202.90 L 940.90 199.40 L 937.80 198.10 L 934.60 197.20 L 931.30 196.60 L 924.50 196.70 L 921.00 197.40 L 917.80 198.50 L 912.00 201.60 L 907.00 206.00 L 903.20 211.30 L 900.80 217.50 L 899.80 224.30 L 897.50 223.70 L 893.00 223.40 L 889.70 223.90 L 886.60 225.10 L 882.80 227.50 L 881.10 229.10 L 878.50 232.90 L 877.60 234.90 L 876.70 238.20 L 876.50 241.50 L 877.20 246.00 L 879.10 250.20 L 881.90 253.70 L 884.50 255.80 L 887.50 257.40 L 889.60 258.10 L 894.10 258.70 Z" fill="url(#SVGID_00000116234343322038510730000016876057378879334573_)" fill-opacity="0.1" fill-rule="nonzero" group-id="1,7" node-id="1043" stroke="none" target-height="62.100006" target-width="110.70001" target-x="876.5" target-y="196.6"></path></g><g node-id="1089"><path d="M 149.50 870.70 L 142.10 870.70 L 141.40 870.10 L 141.60 824.80 L 149.50 824.70 L 150.10 825.30 L 150.10 870.10 L 149.50 870.70 Z" fill="url(#SVGID_00000121265935480167936780000005887748149357281976_)" fill-rule="nonzero" group-id="1,8" node-id="1048" stroke="none" target-height="46" target-width="8.700012" target-x="141.4" target-y="824.7"></path><path d="M 146.10 783.50 L 128.80 837.10 L 146.10 847.40 Z" fill="#a4c6ff" fill-rule="nonzero" group-id="1,8" node-id="1050" stroke="none" target-height="63.900024" target-width="17.300003" target-x="128.8" target-y="783.5"></path><path d="M 146.10 783.50 L 163.50 834.40 L 146.10 844.10 Z" fill="#76aaff" fill-rule="nonzero" group-id="1,8" node-id="1052" stroke="none" target-height="60.599976" target-width="17.399994" target-x="146.1" target-y="783.5"></path></g><g node-id="1090"><path d="M 892.80 891.10 L 881.60 891.10 L 881.10 890.80 L 880.80 890.30 L 880.80 824.10 L 881.10 823.50 L 881.60 823.30 L 892.80 823.30 L 893.30 823.50 L 893.60 824.10 L 893.60 890.30 L 893.30 890.80 L 892.80 891.10 Z" fill="url(#SVGID_00000145761512566959681840000006171319778369131695_)" fill-rule="nonzero" group-id="1,9" node-id="1057" stroke="none" target-height="67.79999" target-width="12.799988" target-x="880.8" target-y="823.3"></path><path d="M 887.70 762.80 L 862.20 841.60 L 887.70 856.70 Z" fill="#a4c6ff" fill-rule="nonzero" group-id="1,9" node-id="1059" stroke="none" target-height="93.900024" target-width="25.5" target-x="862.2" target-y="762.8"></path><path d="M 887.70 762.80 L 913.20 837.60 L 887.70 851.90 Z" fill="#76aaff" fill-rule="nonzero" group-id="1,9" node-id="1061" stroke="none" target-height="89.10004" target-width="25.5" target-x="887.7" target-y="762.8"></path></g><g node-id="1091"><path d="M 227.70 822.40 L 222.60 822.40 L 222.20 822.00 L 222.20 791.30 L 222.60 790.90 L 227.70 790.90 L 228.10 791.30 L 228.10 822.00 L 227.70 822.40 Z" fill="url(#SVGID_00000021830106945726947810000015987687208985215640_)" fill-rule="nonzero" group-id="1,10" node-id="1066" stroke="none" target-height="31.5" target-width="5.900009" target-x="222.2" target-y="790.9"></path><path d="M 225.40 762.80 L 213.50 799.40 L 225.40 806.50 Z" fill="#a4c6ff" fill-rule="nonzero" group-id="1,10" node-id="1068" stroke="none" target-height="43.700012" target-width="11.899994" target-x="213.5" target-y="762.8"></path><path d="M 225.40 762.80 L 237.30 797.60 L 225.40 804.20 Z" fill="#76aaff" fill-rule="nonzero" group-id="1,10" node-id="1070" stroke="none" target-height="41.400024" target-width="11.900009" target-x="225.4" target-y="762.8"></path></g></g><g node-id="1083"><path d="M 666.20 512.40 L 665.90 503.10 L 665.30 494.00 L 664.30 485.00 L 662.80 476.30 L 661.00 467.60 L 658.10 456.90 L 654.70 446.50 L 650.80 436.30 L 646.30 426.50 L 641.20 416.90 L 635.70 407.70 L 629.70 398.80 L 623.20 390.20 L 616.30 382.00 L 608.90 374.30 L 601.20 366.90 L 593.00 360.00 L 584.40 353.50 L 575.50 347.50 L 566.30 341.90 L 556.70 336.90 L 546.90 332.40 L 536.70 328.40 L 526.30 325.10 L 515.60 322.20 L 506.90 320.40 L 498.10 318.90 L 489.20 317.90 L 480.10 317.30 L 470.80 317.00 L 461.50 317.30 L 452.40 317.90 L 443.40 318.90 L 434.60 320.40 L 426.00 322.20 L 415.30 325.10 L 404.80 328.40 L 394.70 332.40 L 384.90 336.90 L 375.30 341.90 L 366.00 347.50 L 357.20 353.50 L 348.60 360.00 L 340.40 366.90 L 332.70 374.30 L 325.30 382.00 L 318.30 390.20 L 311.90 398.80 L 305.90 407.70 L 300.30 416.90 L 295.30 426.50 L 290.80 436.30 L 286.80 446.50 L 283.40 456.90 L 280.60 467.60 L 278.80 476.30 L 277.30 485.00 L 276.30 494.00 L 275.70 503.10 L 275.40 512.40 L 275.70 522.10 L 276.40 531.50 L 277.50 540.80 L 279.10 550.00 L 281.10 559.10 L 283.50 567.90 L 286.30 576.60 L 289.60 585.10 L 293.20 593.50 L 297.10 601.60 L 301.40 609.50 L 306.10 617.20 L 305.80 617.20 L 313.60 628.40 L 320.20 636.90 L 445.70 808.20 L 448.20 811.20 L 451.00 813.80 L 453.90 816.00 L 457.00 817.70 L 460.40 819.10 L 463.80 820.10 L 467.20 820.70 L 470.80 820.90 L 474.40 820.70 L 477.80 820.10 L 481.20 819.10 L 484.60 817.70 L 487.70 816.00 L 490.60 813.80 L 493.40 811.20 L 495.90 808.20 L 621.40 636.90 L 628.00 628.40 L 635.80 617.20 L 635.50 617.20 L 640.20 609.50 L 644.50 601.60 L 648.40 593.50 L 652.00 585.10 L 655.20 576.60 L 658.10 567.90 L 660.50 559.10 L 662.50 550.00 L 664.10 540.80 L 665.20 531.50 L 665.90 522.10 L 666.20 512.40 Z" fill="url(#SVGID_00000019638997782921756820000016469724529228986524_)" fill-rule="nonzero" group-id="2" node-id="1076" stroke="none" target-height="503.90002" target-width="390.80002" target-x="275.4" target-y="317"></path><g node-id="1092"><path d="M 501.60 382.10 L 510.50 384.50 L 519.10 387.50 L 527.30 391.00 L 535.10 394.90 L 542.70 399.40 L 549.90 404.30 L 556.70 409.70 L 563.20 415.40 L 569.20 421.60 L 574.80 428.10 L 580.00 434.90 L 584.70 442.00 L 589.00 449.50 L 592.80 457.10 L 596.10 465.10 L 598.90 473.20 L 601.20 481.60 L 602.90 490.00 L 604.00 498.70 L 604.70 507.50 L 604.70 516.30 L 604.10 525.20 L 603.00 534.10 L 601.10 543.20 L 598.70 552.20 L 595.70 560.70 L 592.30 568.90 L 588.30 576.80 L 583.80 584.40 L 578.90 591.60 L 573.60 598.40 L 567.80 604.80 L 561.60 610.90 L 555.20 616.50 L 548.40 621.70 L 541.20 626.40 L 533.80 630.70 L 526.10 634.50 L 518.20 637.70 L 510.00 640.50 L 501.70 642.80 L 493.20 644.50 L 484.60 645.70 L 475.80 646.30 L 467.00 646.40 L 458.10 645.80 L 449.10 644.60 L 440.00 642.80 L 431.10 640.40 L 422.50 637.40 L 414.30 633.90 L 406.40 630.00 L 398.80 625.50 L 391.60 620.60 L 384.80 615.20 L 378.40 609.50 L 372.40 603.30 L 366.80 596.80 L 361.60 590.00 L 356.80 582.90 L 352.60 575.40 L 348.80 567.80 L 345.50 559.80 L 342.70 551.70 L 340.40 543.30 L 338.70 534.90 L 337.50 526.20 L 336.90 517.40 L 336.90 508.60 L 337.40 499.70 L 338.60 490.80 L 340.40 481.70 L 342.90 472.70 L 345.80 464.20 L 349.30 456.00 L 353.30 448.10 L 357.80 440.50 L 362.70 433.30 L 368.00 426.50 L 373.80 420.10 L 379.90 414.00 L 386.40 408.40 L 393.20 403.20 L 400.40 398.50 L 407.80 394.20 L 415.50 390.40 L 423.40 387.20 L 431.60 384.40 L 439.90 382.10 L 448.40 380.40 L 457.00 379.20 L 465.80 378.60 L 474.60 378.50 L 483.50 379.10 L 492.50 380.30 L 501.60 382.10 Z" fill="#ffffff" fill-rule="nonzero" group-id="2,11" node-id="1080" stroke="none" target-height="267.90002" target-width="267.80002" target-x="336.9" target-y="378.5"></path></g></g></svg>